{"title":"Ghostbusters 2016 HQ 1080p Blu-Ray x264 DTS-HD 5.1 ESub -DDR","uid":15922779,"size":10872723735,"categoryP":"video","categoryS":"hd___movies","magnet":"?xt=urn:btih:aba1a06bb46e976c9ab4dd0e05c9f294db47fba2&amp;dn=Ghostbusters+2016+HQ+1080p+Blu-Ray+x264+DTS-HD+5.1+ESub+-DDR&amp;tr=udp%3A%2F%2Ftracker.leechers-paradise.org%3A6969&amp;tr=udp%3A%2F%2Fzer0day.ch%3A1337&amp;tr=udp%3A%2F%2Fopen.demonii.com%3A1337&amp;tr=udp%3A%2F%2Ftracker.coppersurfer.tk%3A6969&amp;tr=udp%3A%2F%2Fexodus.desync.com%3A6969","seeders":16,"leechers":211,"uploader":"SaM","files":4,"time":1475265302,"description":"HQ 1080p Blu-ray Rip x264\r\n\r\nEnglish DTS-HD 5.1 Audio\r\n\r\nEnglish + SDH Subtitles \r\n \nhttps://extraimago.com/image/wzJt \nhttps://extraimago.com/image/wzJo \nhttps://extraimago.com/image/wzJk \nhttps://extraimago.com/image/wzJH \nhttps://extraimago.com/image/wzJF \nhttps://extraimago.com/image/wzJD \nhttps://extraimago.com/image/wzJ5 \nhttps://extraimago.com/image/wzJg \nhttps://extraimago.com/image/wzJX \nhttps://extraimago.com/image/wzJP \nhttps://extraimago.com/image/wzJG\r\n\r\nSpecs:\r\nSource: BD50 @ HDC\r\n\r\nFormat : Matroska\r\nFormat version : Version 4 / Version 2\r\nFile size : 10.1 GiB\r\nDuration : 1 h 56 min\r\nOverall bit rate : 12.3 Mb/s\r\n\r\nVideo\r\nID : 1\r\nFormat : AVC\r\nFormat/Info : Advanced Video Codec\r\nFormat profile :   \r\nFormat settings, CABAC : Yes\r\nFormat settings, ReFrames : 5 frames\r\nCodec ID : V_MPEG4/ISO/AVC\r\nDuration : 1 h 56 min\r\nBit rate : 10 000 kb/s\r\nWidth : 1 920 pixels\r\nHeight : 800 pixels\r\nDisplay aspect ratio : 2.40:1\r\nFrame rate mode : Constant\r\nFrame rate : 23.976 (24000/1001) FPS\r\nColor space : YUV\r\nChroma subsampling : 4:2:0\r\nBit depth : 8 bits\r\nScan type : Progressive\r\nBits/(Pixel*Frame) : 0.272\r\nStream size : 8.14 GiB (81%)\r\nLanguage : English\r\nDefault : Yes\r\nForced : No\r\nColor range : Limited\r\nColor primaries : BT.709\r\nTransfer characteristics : BT.709\r\nMatrix coefficients : BT.709\r\n\r\nAudio\r\nID : 2\r\nFormat : DTS\r\nFormat/Info : Digital Theater Systems\r\nFormat profile : MA / Core\r\nMode : 16\r\nFormat settings, Endianness : Big\r\nCodec ID : A_DTS\r\nDuration : 1 h 56 min\r\nBit rate mode : Variable / Constant\r\nBit rate : 2 306 kb/s / 1 509 kb/s\r\nChannel(s) : 6 channels\r\nChannel positions : Front: L C R, Side: L R, LFE\r\nSampling rate : 48.0 kHz\r\nFrame rate : 93.750 FPS (512 spf)\r\nBit depth : 16 bits\r\nCompression mode : Lossless / Lossy\r\nStream size : 1.88 GiB (19%)\r\nLanguage : English\r\nDefault : Yes\r\nForced : No\r\n\r\n\r\nSAMPLE Included","torrent":{"xt":"urn:btih:aba1a06bb46e976c9ab4dd0e05c9f294db47fba2","amp;dn":"Ghostbusters+2016+HQ+1080p+Blu-Ray+x264+DTS-HD+5.1+ESub+-DDR","amp;tr":["udp%3A%2F%2Ftracker.leechers-paradise.org%3A6969","udp%3A%2F%2Fzer0day.ch%3A1337","udp%3A%2F%2Fopen.demonii.com%3A1337","udp%3A%2F%2Ftracker.coppersurfer.tk%3A6969","udp%3A%2F%2Fexodus.desync.com%3A6969"],"infoHash":"aba1a06bb46e976c9ab4dd0e05c9f294db47fba2","infoHashBuffer":{"type":"Buffer","data":[171,161,160,107,180,110,151,108,154,180,221,14,5,201,242,148,219,71,251,162]},"announce":[],"urlList":[]}}